@startuml

' Template file to use to create the diagrams od the packages.
' Every file must have a sub part called INTERNAL with the internal connections of the package and
' a sub part called EXTERNAL with the external parts.
skinparam linetype polyline
skinparam linetype ortho

!startsub INTERNAL
package src.engine.scene {
    class src.engine.scene.Scene
    class src.engine.scene.UnitConverter


    !includesub src.engine.scene.model.puml!INTERNAL
    !includesub src.engine.scene.transformation.puml!INTERNAL
    !includesub src.engine.scene.filter.puml!INTERNAL
    !includesub src.engine.scene.interpolation.puml!INTERNAL
    !includesub src.engine.scene.map_transformation.puml!INTERNAL
}
!endsub


!startsub EXTERNAL
    !includesub src.engine.scene.model.puml!EXTERNAL
    !includesub src.engine.scene.transformation.puml!EXTERNAL
    !includesub src.engine.scene.filter.puml!EXTERNAL
    !includesub src.engine.scene.interpolation.puml!EXTERNAL
    !includesub src.engine.scene.map_transformation.puml!EXTERNAL

    src.engine.scene.Scene o-u--o src.engine.Engine
    src.engine.scene.Scene ..> src.error.SceneError
    src.engine.scene.Scene ..> src.program.ViewMode
!endsub


' Code that will affect only the current diagram
' can be messy since will not be imported
hide members
@enduml